<mxfile host="app.diagrams.net" modified="2024-05-29T16:54:03.361Z" agent="Mozilla/5.0 (Windows NT 10.0; Win64; x64) AppleWebKit/537.36 (KHTML, like Gecko) Chrome/125.0.0.0 Safari/537.36" etag="MKgt6aRnramWTE8FQ-DI" version="24.4.9" type="device">
  <diagram name="PÃ¡gina-1" id="DJiFK8EP3TdRASjcfKtC">
    <mxGraphModel dx="2261" dy="756" grid="1" gridSize="10" guides="1" tooltips="1" connect="1" arrows="1" fold="1" page="1" pageScale="1" pageWidth="827" pageHeight="1169" math="0" shadow="0">
      <root>
        <mxCell id="0" />
        <mxCell id="1" parent="0" />
        <mxCell id="eVKOzigDNT8V07r_QYtb-1" value="" style="rounded=0;whiteSpace=wrap;html=1;" vertex="1" parent="1">
          <mxGeometry x="-300" y="30" width="1350" height="810" as="geometry" />
        </mxCell>
        <mxCell id="eVKOzigDNT8V07r_QYtb-2" style="edgeStyle=orthogonalEdgeStyle;rounded=0;orthogonalLoop=1;jettySize=auto;html=1;" edge="1" parent="1" source="eVKOzigDNT8V07r_QYtb-4" target="eVKOzigDNT8V07r_QYtb-6">
          <mxGeometry relative="1" as="geometry" />
        </mxCell>
        <mxCell id="eVKOzigDNT8V07r_QYtb-3" style="edgeStyle=orthogonalEdgeStyle;rounded=0;orthogonalLoop=1;jettySize=auto;html=1;" edge="1" parent="1" source="eVKOzigDNT8V07r_QYtb-4" target="eVKOzigDNT8V07r_QYtb-9">
          <mxGeometry relative="1" as="geometry" />
        </mxCell>
        <mxCell id="eVKOzigDNT8V07r_QYtb-4" value="&lt;b&gt;&lt;font style=&quot;font-size: 50px;&quot;&gt;10&lt;/font&gt;&lt;/b&gt;" style="ellipse;whiteSpace=wrap;html=1;" vertex="1" parent="1">
          <mxGeometry x="360" y="110" width="120" height="110" as="geometry" />
        </mxCell>
        <mxCell id="eVKOzigDNT8V07r_QYtb-13" style="edgeStyle=orthogonalEdgeStyle;rounded=0;orthogonalLoop=1;jettySize=auto;html=1;" edge="1" parent="1" source="eVKOzigDNT8V07r_QYtb-6" target="eVKOzigDNT8V07r_QYtb-12">
          <mxGeometry relative="1" as="geometry" />
        </mxCell>
        <mxCell id="eVKOzigDNT8V07r_QYtb-19" style="edgeStyle=orthogonalEdgeStyle;rounded=0;orthogonalLoop=1;jettySize=auto;html=1;" edge="1" parent="1" source="eVKOzigDNT8V07r_QYtb-6" target="eVKOzigDNT8V07r_QYtb-18">
          <mxGeometry relative="1" as="geometry" />
        </mxCell>
        <mxCell id="eVKOzigDNT8V07r_QYtb-6" value="&lt;b&gt;&lt;font style=&quot;font-size: 50px;&quot;&gt;5&lt;/font&gt;&lt;/b&gt;" style="ellipse;whiteSpace=wrap;html=1;" vertex="1" parent="1">
          <mxGeometry x="90" y="260" width="120" height="110" as="geometry" />
        </mxCell>
        <mxCell id="eVKOzigDNT8V07r_QYtb-15" style="edgeStyle=orthogonalEdgeStyle;rounded=0;orthogonalLoop=1;jettySize=auto;html=1;" edge="1" parent="1" source="eVKOzigDNT8V07r_QYtb-9" target="eVKOzigDNT8V07r_QYtb-14">
          <mxGeometry relative="1" as="geometry">
            <Array as="points">
              <mxPoint x="750" y="295" />
            </Array>
          </mxGeometry>
        </mxCell>
        <mxCell id="eVKOzigDNT8V07r_QYtb-9" value="&lt;b&gt;&lt;font style=&quot;font-size: 50px;&quot;&gt;20&lt;/font&gt;&lt;/b&gt;" style="ellipse;whiteSpace=wrap;html=1;" vertex="1" parent="1">
          <mxGeometry x="580" y="240" width="120" height="110" as="geometry" />
        </mxCell>
        <mxCell id="eVKOzigDNT8V07r_QYtb-12" value="&lt;b&gt;&lt;font style=&quot;font-size: 50px;&quot;&gt;7&lt;/font&gt;&lt;/b&gt;" style="ellipse;whiteSpace=wrap;html=1;" vertex="1" parent="1">
          <mxGeometry x="250" y="430" width="120" height="110" as="geometry" />
        </mxCell>
        <mxCell id="eVKOzigDNT8V07r_QYtb-25" style="edgeStyle=orthogonalEdgeStyle;rounded=0;orthogonalLoop=1;jettySize=auto;html=1;" edge="1" parent="1" source="eVKOzigDNT8V07r_QYtb-14" target="eVKOzigDNT8V07r_QYtb-24">
          <mxGeometry relative="1" as="geometry" />
        </mxCell>
        <mxCell id="eVKOzigDNT8V07r_QYtb-14" value="&lt;b&gt;&lt;font style=&quot;font-size: 50px;&quot;&gt;33&lt;/font&gt;&lt;/b&gt;" style="ellipse;whiteSpace=wrap;html=1;" vertex="1" parent="1">
          <mxGeometry x="690" y="430" width="120" height="110" as="geometry" />
        </mxCell>
        <mxCell id="eVKOzigDNT8V07r_QYtb-23" style="edgeStyle=orthogonalEdgeStyle;rounded=0;orthogonalLoop=1;jettySize=auto;html=1;" edge="1" parent="1" source="eVKOzigDNT8V07r_QYtb-18" target="eVKOzigDNT8V07r_QYtb-22">
          <mxGeometry relative="1" as="geometry" />
        </mxCell>
        <mxCell id="eVKOzigDNT8V07r_QYtb-18" value="&lt;b&gt;&lt;font style=&quot;font-size: 50px;&quot;&gt;1&lt;/font&gt;&lt;/b&gt;" style="ellipse;whiteSpace=wrap;html=1;" vertex="1" parent="1">
          <mxGeometry x="-140" y="420" width="120" height="110" as="geometry" />
        </mxCell>
        <mxCell id="eVKOzigDNT8V07r_QYtb-22" value="&lt;b&gt;&lt;font style=&quot;font-size: 50px;&quot;&gt;2&lt;/font&gt;&lt;/b&gt;" style="ellipse;whiteSpace=wrap;html=1;" vertex="1" parent="1">
          <mxGeometry x="-10" y="610" width="120" height="110" as="geometry" />
        </mxCell>
        <mxCell id="eVKOzigDNT8V07r_QYtb-24" value="&lt;b&gt;&lt;font style=&quot;font-size: 50px;&quot;&gt;30&lt;/font&gt;&lt;/b&gt;" style="ellipse;whiteSpace=wrap;html=1;" vertex="1" parent="1">
          <mxGeometry x="540" y="630" width="120" height="110" as="geometry" />
        </mxCell>
      </root>
    </mxGraphModel>
  </diagram>
</mxfile>
